<?xml version="1.0" standalone="no"?>
<!DOCTYPE svg PUBLIC "-//W3C//DTD SVG 20010904//EN"
 "http://www.w3.org/TR/2001/REC-SVG-20010904/DTD/svg10.dtd">
<svg version="1.0" xmlns="http://www.w3.org/2000/svg"
 width="350.000000pt" height="350.000000pt" viewBox="0 0 350.000000 350.000000"
 preserveAspectRatio="xMidYMid meet">
<metadata>
Created by potrace 1.11, written by Peter Selinger 2001-2013
</metadata>
<g transform="translate(0.000000,350.000000) scale(0.100000,-0.100000)"
fill="#000000" stroke="none">
<path d="M1448 3295 c-1 -1 -41 -6 -88 -10 -46 -3 -87 -8 -90 -10 -3 -2 -24
-6 -48 -10 -198 -29 -505 -158 -697 -293 -127 -89 -248 -201 -338 -312 -97
-120 -96 -120 32 0 156 146 448 316 666 388 279 92 608 121 870 77 17 -3 44
-7 60 -10 93 -16 186 -42 295 -82 709 -263 1179 -931 1184 -1683 1 -187 -5
-257 -34 -403 -44 -217 -147 -468 -267 -656 -61 -95 -39 -83 47 24 204 257
324 538 375 875 13 91 15 435 2 485 -2 11 -8 41 -11 67 -28 207 -140 496 -273
703 -101 156 -272 343 -413 452 -256 198 -591 344 -869 378 -30 4 -63 9 -75
11 -24 5 -323 14 -328 9z"/>
<path d="M1398 2905 c-2 -2 -21 -6 -43 -9 -22 -3 -51 -8 -65 -11 -14 -2 -36
-6 -50 -9 -59 -10 -161 -40 -237 -71 -189 -76 -351 -183 -485 -322 -70 -72
-154 -173 -143 -173 2 0 35 27 72 61 125 112 297 216 466 283 92 36 276 84
362 92 130 14 344 8 435 -11 14 -3 41 -8 60 -11 125 -20 357 -121 507 -221
109 -72 290 -250 367 -360 120 -173 208 -387 246 -602 27 -155 21 -414 -13
-561 -43 -184 -106 -338 -213 -520 l-26 -45 51 55 c106 113 216 297 271 454
262 752 -112 1570 -857 1874 -93 38 -254 83 -353 98 -44 6 -346 14 -352 9z"/>
<path d="M438 2162 l-28 -3 0 -253 0 -254 25 -4 c29 -6 27 -13 29 117 l1 100
61 2 60 2 54 -109 c50 -101 57 -110 82 -110 15 0 28 3 28 8 -1 4 -27 56 -59
116 l-58 108 41 38 c39 37 41 41 41 98 -1 71 -21 107 -73 129 -34 14 -141 22
-204 15z m179 -60 c33 -18 45 -40 46 -82 1 -45 -27 -83 -72 -98 -35 -12 -121
-15 -122 -5 -3 27 -5 189 -2 195 5 11 127 2 150 -10z"/>
<path d="M959 2121 c-36 -44 -36 -51 0 -51 22 0 37 10 60 39 17 21 31 42 31
45 0 4 -14 5 -31 4 -22 -2 -40 -13 -60 -37z"/>
<path d="M939 2030 c-78 -14 -127 -80 -133 -180 -8 -132 55 -211 168 -212 85
-1 116 9 116 39 0 22 -3 24 -22 19 -57 -18 -106 -18 -141 -1 -36 17 -67 65
-67 104 0 20 5 21 131 21 l131 0 -7 58 c-8 69 -30 110 -72 135 -39 22 -58 25
-104 17z m86 -62 c26 -24 48 -78 36 -95 -9 -14 -201 -14 -201 1 1 23 39 94 57
105 31 18 80 13 108 -11z"/>
<path d="M1270 2029 c-47 -10 -80 -50 -80 -98 0 -43 19 -65 90 -102 87 -45
108 -80 76 -125 -12 -16 -26 -19 -95 -18 -72 1 -79 -1 -78 -18 2 -22 32 -32
104 -31 67 1 113 27 131 75 21 55 -5 102 -78 140 -86 46 -100 57 -100 82 0 42
31 58 102 54 53 -2 63 0 66 14 3 18 -11 24 -73 31 -16 2 -46 0 -65 -4z"/>
<path d="M1595 2025 c-22 -8 -52 -28 -67 -46 -66 -79 -57 -257 17 -312 32 -23
111 -37 161 -28 52 10 64 18 64 43 0 16 -4 19 -22 14 -13 -3 -41 -9 -64 -12
-75 -11 -144 41 -144 110 l0 25 128 3 127 3 -3 50 c-8 118 -95 185 -197 150z
m97 -46 c21 -11 48 -66 48 -97 0 -18 -8 -19 -100 -19 -110 0 -111 1 -86 61 24
58 86 83 138 55z"/>
<path d="M2000 2034 c-8 -1 -32 -5 -52 -9 -23 -3 -42 -14 -48 -26 -17 -30 -3
-39 35 -23 19 8 55 14 79 14 54 0 86 -28 86 -74 0 -31 0 -31 -62 -34 -66 -3
-134 -27 -157 -56 -20 -23 -25 -106 -9 -136 36 -68 188 -69 227 -3 9 16 10 14
11 -8 0 -18 7 -28 20 -32 11 -3 20 0 21 6 0 7 0 76 0 155 -1 158 -10 192 -58
210 -36 13 -74 20 -93 16z m99 -245 c-12 -53 -24 -74 -51 -93 -23 -17 -85 -21
-104 -8 -36 23 -37 87 -3 118 24 22 128 44 150 33 14 -7 15 -15 8 -50z"/>
<path d="M2279 2022 c-13 -6 -15 -28 -14 -152 3 -181 13 -207 95 -229 48 -14
110 2 138 34 l22 26 0 -25 c0 -20 5 -26 23 -26 l23 0 -2 183 c-2 214 0 196
-19 193 -27 -4 -30 -16 -31 -124 -1 -134 -8 -165 -46 -197 -58 -49 -146 -18
-149 52 -1 15 -3 78 -4 138 -3 152 0 142 -36 127z"/>
<path d="M1229 1462 l-27 -3 2 -472 1 -472 45 0 45 0 2 218 c1 120 3 221 6
223 4 4 216 6 408 5 l66 -1 0 -214 c0 -117 3 -218 7 -225 10 -15 71 -14 83 2
11 14 11 916 1 933 -7 11 -76 9 -87 -2 -3 -2 -4 -95 -4 -207 l1 -202 -233 0
c-128 0 -237 3 -241 7 -4 4 -7 96 -8 204 -1 187 -2 197 -21 203 -11 4 -32 5
-46 3z"/>
<path d="M410 1433 c-3 -416 -1 -904 4 -912 10 -15 73 -14 83 2 4 6 8 98 8
202 l0 190 85 2 c47 1 97 4 111 7 24 5 30 -4 124 -194 54 -110 103 -204 109
-210 5 -5 27 -10 48 -10 41 0 59 19 40 43 -5 6 -55 101 -111 209 -92 177 -100
197 -83 203 32 9 110 92 128 133 34 81 11 218 -48 281 -61 65 -100 75 -310 79
l-188 4 0 -29z m365 -73 c59 -23 89 -66 98 -139 7 -60 -9 -110 -46 -149 -48
-51 -89 -64 -212 -69 l-110 -5 0 190 0 191 120 -3 c66 -2 133 -9 150 -16z"/>
<path d="M2288 1362 c-19 -4 -20 -6 -20 -139 l0 -83 -31 -1 c-18 -1 -68 -2
-112 -3 l-80 -1 0 -35 0 -35 100 -1 c55 -1 106 -2 112 -3 9 -1 13 -24 12 -83
-2 -145 -4 -138 36 -138 l35 0 0 113 0 113 103 -1 c56 -1 108 0 115 3 19 7 15
60 -5 66 -10 3 -54 5 -98 5 -44 0 -88 0 -97 0 -16 1 -18 13 -18 110 0 115 -4
124 -52 113z"/>
</g>
</svg>
